<svg width="517" height="170" viewBox="0 0 517 170" fill="none" xmlns="http://www.w3.org/2000/svg">
<path d="M32.3813 70.5273C33.1596 70.5273 33.7295 70.8192 34.0908 71.403C34.4522 71.9867 34.6329 72.5565 34.6329 73.1125C34.6329 73.8908 34.3688 74.6135 33.8406 75.2807C33.3125 75.9478 32.6593 76.2814 31.881 76.2814C30.9359 76.2814 30.0602 75.9478 29.2541 75.2807C28.448 74.6135 28.0449 73.8908 28.0449 73.1125C28.1561 72.223 28.6982 71.5697 29.6711 71.1528C30.644 70.7358 31.5474 70.5273 32.3813 70.5273Z" fill="#050033"/>
<path d="M73.3031 82.066C73.0807 82.066 72.761 81.9965 72.3441 81.8575C71.9271 81.7185 71.4824 81.5796 71.0098 81.4406C70.5372 81.3016 70.0647 81.1626 69.5921 81.0236C69.1196 80.8846 68.7165 80.8151 68.383 80.8151C67.8826 80.8151 67.4239 81.0375 67.007 81.4823C66.59 81.927 66.1592 82.4274 65.7144 82.9833C65.2697 83.5393 64.7693 84.0396 64.2134 84.4844C63.6574 84.9291 62.9903 85.1515 62.212 85.1515C61.6004 85.1515 61.0445 84.9986 60.5441 84.6928C60.0438 84.3871 59.599 84.0118 59.2099 83.5671C58.8207 83.1223 58.5149 82.6775 58.2926 82.2328C58.0702 81.788 57.959 81.4267 57.959 81.1487C57.959 80.8151 58.1119 80.3843 58.4176 79.8561C58.7234 79.328 59.1821 79.0639 59.7936 79.0639C60.016 79.0639 60.2384 79.189 60.4607 79.4392C60.6831 79.6893 60.8916 79.9673 61.0862 80.2731C61.2808 80.5789 61.4892 80.8568 61.7116 81.107C61.934 81.3572 62.1842 81.4823 62.4621 81.4823C62.8513 81.4823 63.2266 81.246 63.5879 80.7734C63.9493 80.3009 64.3385 79.8005 64.7554 79.2724C65.1724 78.7442 65.6171 78.2439 66.0897 77.7713C66.5622 77.2988 67.0765 77.0625 67.6324 77.0625C68.2996 77.0625 68.9945 77.2154 69.7172 77.5212C70.44 77.8269 71.1071 78.2161 71.7186 78.6886C72.3302 79.1612 72.8305 79.6615 73.2197 80.1897C73.6088 80.7178 73.8034 81.1765 73.8034 81.5657C73.8034 81.8992 73.6366 82.066 73.3031 82.066Z" fill="#050033"/>
<path d="M103.336 37C104.115 37 104.685 37.2919 105.046 37.8756C105.407 38.4594 105.588 39.0292 105.588 39.5851C105.588 40.3635 105.324 41.0862 104.796 41.7533C104.268 42.4205 103.614 42.754 102.836 42.754C101.891 42.754 101.015 42.4205 100.209 41.7533C99.4031 41.0862 99 40.3635 99 39.5851C99.1112 38.6956 99.6532 38.0424 100.626 37.6254C101.599 37.2085 102.502 37 103.336 37Z" fill="#050033"/>
<path d="M147.095 6.10323C146.98 7.59991 145.933 9.08099 143.953 10.5465C141.973 12.012 139.389 13.9052 136.201 16.2261C135.374 16.8319 134.549 17.2288 133.726 17.4168C132.903 17.6047 132.02 17.6626 131.078 17.5906C130.357 17.5354 129.726 17.4035 129.185 17.1948C128.643 16.9861 128.103 16.7636 127.563 16.5271C127.024 16.2907 126.428 16.0639 125.775 15.8467C125.123 15.6296 124.298 15.4828 123.3 15.4065C120.417 15.186 117.569 15.4281 114.755 16.1328C111.941 16.8375 109.175 17.8386 106.455 19.136C103.735 20.4333 101.081 21.9588 98.4938 23.7124C95.9064 25.4659 93.4276 27.2557 91.0577 29.0816C90.7593 29.3376 90.3831 29.5179 89.929 29.6226C89.475 29.7272 89.1094 29.769 88.8322 29.7478C88.2779 29.7054 88.0219 29.407 88.0643 28.8527C88.0855 28.5755 88.2197 28.2791 88.4669 27.9635C88.7141 27.6478 88.9271 27.4132 89.1062 27.2597C91.0454 25.2335 93.2895 23.2306 95.8385 21.2511C98.3874 19.2716 101.129 17.5019 104.064 15.9422C107 14.3826 110.048 13.1661 113.209 12.2927C116.37 11.4194 119.531 11.1036 122.69 11.3453C123.633 11.4174 124.486 11.5663 125.249 11.792C126.012 12.0176 126.704 12.2657 127.325 12.5362C127.945 12.8067 128.554 13.0484 129.151 13.2614C129.748 13.4743 130.352 13.6041 130.961 13.6508C132.181 13.7441 133.497 13.3011 134.91 12.322C136.323 11.3428 137.69 10.2347 139.012 8.99757C140.333 7.76048 141.548 6.64069 142.656 5.6382C143.764 4.63572 144.651 4.15991 145.316 4.2108C146.092 4.27017 146.594 4.44798 146.822 4.74422C147.051 5.04047 147.142 5.49347 147.095 6.10323Z" fill="#050033"/>
<path d="M155.513 67.2516C155.513 68.3079 155.054 69.253 154.137 70.0869C153.22 70.9208 152.024 71.6157 150.551 72.1717C149.078 72.7276 147.424 73.1585 145.589 73.4643C143.755 73.77 141.92 73.9229 140.085 73.9229C139.474 73.9229 138.807 73.8534 138.084 73.7144C137.361 73.5755 137 73.0612 137 72.1717C137 71.5602 137.222 71.0459 137.667 70.6289C138.112 70.212 138.807 70.0035 139.752 70.0035C142.532 70.0035 144.811 69.8089 146.59 69.4198C148.369 69.0306 150.009 68.2245 151.51 67.0014C152.344 66.3899 152.817 65.9034 152.928 65.542C153.039 65.1807 153.289 65 153.678 65C154.012 65 154.401 65.2641 154.846 65.7922C155.291 66.3204 155.513 66.8068 155.513 67.2516Z" fill="#050033"/>
<path d="M187.404 108.093C187.404 107.482 188.405 107.176 190.406 107.176C192.13 107.176 193.77 107.065 195.326 106.842C196.883 106.62 198.315 106.37 199.621 106.092C200.928 105.814 202.04 105.564 202.957 105.341C203.874 105.119 204.583 105.008 205.083 105.008C205.528 105.008 205.75 105.119 205.75 105.341C205.75 105.731 205.278 106.245 204.333 106.884C203.388 107.523 202.192 108.135 200.747 108.719C199.302 109.302 197.689 109.803 195.91 110.22C194.131 110.637 192.38 110.845 190.657 110.845C189.711 110.845 188.933 110.498 188.322 109.803C187.71 109.108 187.404 108.538 187.404 108.093Z" fill="#050033"/>
<path d="M208.947 55.6675C208.947 55.056 209.948 54.7502 211.949 54.7502C213.673 54.7502 215.313 54.639 216.869 54.4167C218.426 54.1943 219.858 53.9441 221.164 53.6661C222.471 53.3882 223.583 53.138 224.5 52.9156C225.417 52.6932 226.126 52.582 226.626 52.582C227.071 52.582 227.293 52.6932 227.293 52.9156C227.293 53.3048 226.821 53.819 225.876 54.4583C224.931 55.0977 223.735 55.7092 222.29 56.293C220.845 56.8767 219.232 57.3771 217.453 57.794C215.674 58.211 213.923 58.4195 212.2 58.4195C211.254 58.4195 210.476 58.072 209.865 57.3771C209.253 56.6821 208.947 56.1123 208.947 55.6675Z" fill="#050033"/>
<path d="M234.881 48C235.66 48 236.229 48.2919 236.591 48.8756C236.952 49.4594 237.133 50.0292 237.133 50.5851C237.133 51.3635 236.869 52.0862 236.341 52.7533C235.812 53.4205 235.159 53.754 234.381 53.754C233.436 53.754 232.56 53.4205 231.754 52.7533C230.948 52.0862 230.545 51.3635 230.545 50.5851C230.656 49.6956 231.198 49.0424 232.171 48.6254C233.144 48.2085 234.047 48 234.881 48Z" fill="#050033"/>
<path d="M309.232 93.7969C309.677 93.7969 310.066 93.9498 310.4 94.2555C310.733 94.5613 310.997 95.1033 311.192 95.8817C311.386 96.66 311.525 97.7163 311.609 99.0506C311.692 100.385 311.734 102.108 311.734 104.221C311.734 108.001 311.609 111.323 311.359 114.186C311.108 117.049 310.691 119.607 310.108 121.858C309.524 124.11 308.746 126.153 307.773 127.988C306.8 129.822 305.563 131.601 304.062 133.325C303.283 134.27 302.38 135.187 301.352 136.077C300.323 136.966 299.308 137.786 298.308 138.537C297.307 139.287 296.376 139.885 295.514 140.329C294.652 140.774 293.971 140.997 293.471 140.997C293.137 140.997 292.971 140.885 292.971 140.663C293.026 140.218 293.721 139.398 295.055 138.203C296.39 137.008 298.058 135.243 300.059 132.908C301.56 131.184 302.755 129.502 303.645 127.862C304.534 126.222 305.229 124.36 305.73 122.275C306.23 120.19 306.55 117.703 306.689 114.812C306.828 111.921 306.869 108.363 306.814 104.137C306.758 101.969 306.772 100.218 306.855 98.8838C306.939 97.5495 307.078 96.5071 307.272 95.7566C307.467 95.0061 307.731 94.4918 308.065 94.2138C308.398 93.9359 308.787 93.7969 309.232 93.7969Z" fill="#050033"/>
<path d="M329.356 147.859C330.134 147.859 330.704 148.151 331.065 148.735C331.427 149.319 331.607 149.889 331.607 150.445C331.607 151.223 331.343 151.946 330.815 152.613C330.287 153.28 329.634 153.613 328.856 153.613C327.91 153.613 327.035 153.28 326.229 152.613C325.423 151.946 325.02 151.223 325.02 150.445C325.131 149.555 325.673 148.902 326.646 148.485C327.619 148.068 328.522 147.859 329.356 147.859Z" fill="#050033"/>
<path d="M97.6797 61.691C98.8472 61.691 99.8062 61.2601 100.557 60.3984C101.307 59.5367 101.877 58.1329 102.266 56.1871C102.489 54.9641 102.753 54.1579 103.058 53.7688C103.364 53.3796 103.823 53.185 104.434 53.185C105.491 53.185 106.019 53.9912 106.019 55.6034C106.019 57.1044 105.81 58.5082 105.393 59.8147C104.977 61.1212 104.393 62.2469 103.642 63.192C102.892 64.1372 102.002 64.8877 100.974 65.4436C99.9452 65.9996 98.8472 66.2775 97.6797 66.2775C97.0682 66.2775 96.6929 66.0552 96.5539 65.6104C96.415 65.1657 96.3454 64.6375 96.3454 64.026C96.3454 63.4144 96.415 62.8724 96.5539 62.3998C96.6929 61.9273 97.0682 61.691 97.6797 61.691ZM97.6797 66.2775C93.8437 66.2775 90.9806 64.9433 89.0904 62.2747C88.5344 63.7758 87.77 65.4714 86.7971 67.3616C85.8242 69.2519 84.754 71.0309 83.5865 72.6987C82.419 74.3665 81.1821 75.7703 79.8756 76.91C78.5691 78.0497 77.3043 78.6195 76.0812 78.6195C74.6914 78.6195 73.9964 78.1748 73.9964 77.2853C73.9964 76.7849 74.2466 76.2846 74.747 75.7842C76.7484 73.9496 78.5135 71.8787 80.0424 69.5715C81.5712 67.2643 82.8916 64.846 84.0035 62.3164C85.1154 59.7869 85.991 57.2295 86.6303 54.6444C87.2697 52.0592 87.7283 49.5436 88.0063 47.0974C88.0619 46.5971 88.1175 46.055 88.1731 45.4713C88.2287 44.8876 88.3398 44.3177 88.5066 43.7618C88.6734 43.2058 88.9236 42.7472 89.2572 42.3858C89.5907 42.0244 90.0077 41.8438 90.508 41.8438C91.4531 41.8438 92.0369 42.1356 92.2592 42.7194C92.4816 43.3031 92.5928 43.9007 92.5928 44.5123C92.5928 47.292 92.3705 49.6409 91.9257 51.5589C91.4809 53.4769 91.2586 54.9085 91.2586 55.8536C91.2586 57.855 91.884 59.3282 93.1349 60.2733C94.3857 61.2184 95.9007 61.691 97.6797 61.691V66.2775ZM79.0833 46.0967C80.4176 46.0967 81.0848 46.9029 81.0848 48.5151C81.0848 50.2941 80.9458 52.1704 80.6678 54.144C80.3898 56.1176 80.084 58.0774 79.7505 60.0232C79.4725 61.6354 79.0417 63.0948 78.4579 64.4012C77.8742 65.7077 77.2626 66.8196 76.6233 67.7369C75.9839 68.6542 75.3863 69.363 74.8304 69.8634C74.2744 70.3637 73.8853 70.6139 73.6629 70.6139C73.5517 70.6139 73.4961 70.5583 73.4961 70.4471C73.4961 70.2803 73.5239 70.1692 73.5795 70.1136C74.8026 66.7779 75.5948 63.3032 75.9562 59.6896C76.3175 56.0759 76.665 52.5179 76.9986 49.0154C77.0541 48.4039 77.2626 47.7646 77.624 47.0974C77.9854 46.4303 78.4718 46.0967 79.0833 46.0967Z" fill="#050033"/>
<path d="M121.261 30C121.706 30 122.095 30.1529 122.429 30.4587C122.762 30.7644 123.027 31.3065 123.221 32.0848C123.416 32.8631 123.555 33.9194 123.638 35.2537C123.721 36.588 123.763 38.3114 123.763 40.424C123.763 44.2044 123.638 47.5262 123.388 50.3893C123.138 53.2524 122.721 55.8098 122.137 58.0613C121.553 60.3129 120.775 62.356 119.802 64.1906C118.829 66.0253 117.592 67.8043 116.091 69.5277C115.313 70.4728 114.409 71.3901 113.381 72.2796C112.352 73.1692 111.338 73.9892 110.337 74.7397C109.336 75.4902 108.405 76.0879 107.543 76.5326C106.682 76.9774 106.001 77.1998 105.5 77.1998C105.167 77.1998 105 77.0886 105 76.8662C105.056 76.4214 105.751 75.6014 107.085 74.4061C108.419 73.2108 110.087 71.4457 112.088 69.1108C113.589 67.3873 114.785 65.7056 115.674 64.0655C116.564 62.4255 117.259 60.5631 117.759 58.4783C118.259 56.3935 118.579 53.9056 118.718 51.0147C118.857 48.1238 118.899 44.5658 118.843 40.3406C118.787 38.1724 118.801 36.4212 118.885 35.0869C118.968 33.7526 119.107 32.7102 119.302 31.9597C119.496 31.2092 119.76 30.6949 120.094 30.417C120.427 30.139 120.817 30 121.261 30Z" fill="#050033"/>
<path d="M236.827 103.898C236.827 103.286 236.896 102.744 237.035 102.272C237.174 101.799 237.549 101.563 238.161 101.563C238.606 101.563 239.023 101.535 239.412 101.479C239.801 101.424 240.329 101.313 240.996 101.146C240.996 99.9228 241.052 98.7415 241.163 97.6018C241.274 96.4621 241.455 95.4614 241.705 94.5997C241.955 93.738 242.317 93.043 242.789 92.5149C243.262 91.9867 243.915 91.7227 244.749 91.7227C245.138 91.7227 245.624 91.806 246.208 91.9728C246.792 92.1396 247.362 92.4315 247.918 92.8484C248.474 93.2654 248.932 93.8213 249.294 94.5163C249.655 95.2112 249.836 96.0868 249.836 97.1431C249.836 98.3662 249.516 99.5198 248.877 100.604C248.237 101.688 247.39 102.647 246.333 103.481C245.277 104.315 244.054 104.968 242.664 105.441C241.274 105.913 239.829 106.149 238.328 106.149C237.605 106.149 237.174 105.927 237.035 105.482C236.896 105.038 236.827 104.509 236.827 103.898ZM183.789 128.665C186.903 128.554 190.197 128.123 193.671 127.373C197.146 126.622 200.579 125.649 203.97 124.454C207.362 123.259 210.614 121.897 213.727 120.368C216.84 118.839 219.592 117.241 221.983 115.573C224.373 113.905 226.319 112.223 227.82 110.528C229.321 108.832 230.155 107.234 230.322 105.732C228.265 105.732 226.583 105.135 225.277 103.94C223.97 102.744 223.317 101.368 223.317 99.8117C223.317 98.6998 223.776 97.6018 224.693 96.5177C225.61 95.4336 226.792 94.8915 228.237 94.8915C229.905 94.8915 231.364 95.5031 232.615 96.7262C233.866 97.9492 234.658 99.5337 234.992 101.479C235.604 101.535 236.146 101.563 236.618 101.563C237.091 101.563 237.605 101.563 238.161 101.563V106.149C237.605 106.149 237.063 106.149 236.535 106.149C236.007 106.149 235.492 106.094 234.992 105.983C234.492 108.318 233.352 110.569 231.573 112.737C229.794 114.906 227.654 116.935 225.152 118.825C222.65 120.715 219.926 122.453 216.979 124.037C214.033 125.621 211.1 126.97 208.182 128.081C205.263 129.193 202.511 130.055 199.926 130.667C197.341 131.278 195.186 131.584 193.463 131.584C191.35 131.584 189.46 131.417 187.792 131.084C186.124 130.75 184.735 130.111 183.623 129.166C183.178 128.832 183.234 128.665 183.789 128.665Z" fill="#050033"/>
<path d="M320.434 131.686C320.212 134.633 319.309 137.44 317.724 140.109C316.14 142.777 314.11 145.126 311.636 147.155C309.163 149.185 306.369 150.797 303.256 151.992C300.142 153.187 296.918 153.785 293.582 153.785C291.97 153.785 290.608 153.382 289.496 152.576C288.384 151.77 287.828 150.894 287.828 149.949C287.828 149.671 287.912 149.532 288.078 149.532C288.245 149.532 288.718 149.588 289.496 149.699C290.274 149.81 291.164 149.866 292.164 149.866C293.554 149.866 295.125 149.643 296.876 149.199C298.627 148.754 300.406 148.128 302.213 147.322C304.02 146.516 305.771 145.543 307.467 144.404C309.163 143.264 310.677 141.985 312.012 140.568C313.346 139.15 314.444 137.607 315.306 135.939C316.167 134.271 316.626 132.492 316.682 130.602C316.737 129.713 316.848 128.92 317.015 128.226C317.182 127.531 317.571 126.836 318.183 126.141C318.794 125.446 319.67 124.695 320.81 123.889C321.949 123.083 323.492 122.096 325.438 120.929C326.383 120.373 327.175 119.845 327.814 119.344C328.454 118.844 328.954 118.288 329.316 117.676C329.677 117.065 329.941 116.356 330.108 115.55C330.275 114.744 330.358 113.785 330.358 112.673C330.358 111.728 330.511 110.922 330.817 110.255C331.122 109.587 331.637 109.254 332.359 109.254C333.36 109.254 333.999 109.671 334.277 110.505C334.555 111.339 334.694 112.228 334.694 113.173C334.694 114.786 334.514 116.162 334.152 117.301C333.791 118.441 333.235 119.456 332.484 120.345C331.734 121.235 330.775 122.082 329.607 122.888C328.44 123.695 327.05 124.57 325.438 125.515C324.27 126.182 323.353 126.766 322.686 127.267C322.019 127.767 321.532 128.226 321.227 128.642C320.921 129.059 320.726 129.504 320.643 129.977C320.559 130.449 320.49 131.019 320.434 131.686Z" fill="#050033"/>
<path d="M60.4591 59.6023C62.794 59.6023 64.6286 58.9908 65.9629 57.7677C67.2972 56.5446 67.9643 54.7378 67.9643 52.3472C67.9643 50.2902 68.6592 49.2617 70.0491 49.2617C70.883 49.2617 71.4112 49.6231 71.6335 50.3458C71.8559 51.0685 71.9671 51.9025 71.9671 52.8476C71.9671 56.2944 70.9664 59.0464 68.965 61.1034C66.9636 63.1604 64.1283 64.1888 60.4591 64.1888C59.8475 64.1888 59.4723 63.9665 59.3333 63.5217C59.1943 63.077 59.1248 62.5488 59.1248 61.9373C59.1248 61.3257 59.1943 60.7837 59.3333 60.3111C59.4723 59.8386 59.8475 59.6023 60.4591 59.6023ZM26.0182 101.882C23.2385 101.882 20.3198 101.382 17.2621 100.381C14.2044 99.3802 11.3969 97.9069 8.83953 95.9611C6.28218 94.0153 4.16958 91.6109 2.50175 88.7477C0.833912 85.8846 0 82.5628 0 78.7824C0 76.1139 0.597632 73.5287 1.79291 71.027C2.9882 68.5252 4.58654 66.2042 6.58794 64.0638C8.58934 61.9234 10.9104 59.9637 13.5512 58.1846C16.1919 56.4056 18.9577 54.8768 21.8487 53.5981C24.7396 52.3194 27.6722 51.3326 30.6465 50.6377C33.6208 49.9428 36.4422 49.5953 39.1108 49.5953C39.7779 49.5953 40.2782 49.7899 40.6118 50.179C40.9454 50.5682 40.8064 50.8184 40.1948 50.9296C35.8585 51.8747 31.6055 53.3062 27.4359 55.2242C23.2663 57.1422 19.5415 59.3521 16.2614 61.8539C12.9813 64.3556 10.3406 67.0659 8.33918 69.9846C6.33778 72.9033 5.33707 75.8081 5.33707 78.699C5.33707 81.034 5.9208 83.2856 7.08829 85.4538C8.25577 87.6219 9.82632 89.5261 11.7999 91.1661C13.7735 92.8061 16.0251 94.1265 18.5547 95.1272C21.0842 96.1279 23.6833 96.6283 26.3518 96.6283C29.9098 96.6283 33.3289 95.9333 36.609 94.5435C39.8891 93.1536 42.78 91.1105 45.2817 88.4142C47.7835 85.7178 49.7849 82.3822 51.2859 78.4072C52.787 74.4321 53.5375 69.8595 53.5375 64.6892C53.5375 63.9109 53.5097 63.0909 53.4541 62.2291C53.3985 61.3674 53.3707 60.5196 53.3707 59.6857C53.3707 58.5182 53.5931 57.6426 54.0379 57.0589C54.4826 56.4751 55.0664 56.1832 55.7891 56.1832C56.4562 56.1832 56.9149 56.3639 57.1651 56.7253C57.4152 57.0866 57.6376 57.4758 57.8322 57.8928C58.0268 58.3097 58.2909 58.6989 58.6244 59.0603C58.958 59.4216 59.5695 59.6023 60.4591 59.6023V64.1888C59.4028 64.1888 58.6244 64.0777 58.1241 63.8553C58.1241 69.6927 57.2763 74.9603 55.5806 79.658C53.885 84.3558 51.5778 88.3586 48.6591 91.6664C45.7404 94.9743 42.3352 97.5039 38.4436 99.2551C34.552 101.006 30.4102 101.882 26.0182 101.882Z" fill="#050033"/>
<path d="M228.543 73.0166C228.543 71.4599 229.044 70.223 230.044 69.3057C231.045 68.3883 232.407 67.9297 234.131 67.9297C236.021 67.9297 237.578 68.6663 238.801 70.1396C240.024 71.6128 240.635 73.4335 240.635 75.6017C240.635 77.6031 240.274 79.4656 239.551 81.189C238.828 82.9124 237.842 84.4135 236.591 85.6921C235.34 86.9708 233.839 87.9715 232.088 88.6942C230.336 89.417 228.46 89.7783 226.459 89.7783C225.847 89.7783 225.472 89.556 225.333 89.1112C225.194 88.6664 225.124 88.1383 225.124 87.5268C225.124 86.9152 225.194 86.3732 225.333 85.9006C225.472 85.4281 225.847 85.1918 226.459 85.1918C227.737 85.1918 228.96 84.9694 230.128 84.5247C231.295 84.0799 232.324 83.4962 233.213 82.7734C234.103 82.0507 234.812 81.2029 235.34 80.23C235.868 79.2571 236.132 78.2147 236.132 77.1028C236.132 76.9916 236.132 76.8665 236.132 76.7275C236.132 76.5885 236.104 76.3801 236.049 76.1021C235.437 76.3801 234.798 76.6024 234.131 76.7692C233.464 76.936 232.824 77.0194 232.213 77.0194C231.101 77.0194 230.211 76.6441 229.544 75.8936C228.877 75.1431 228.543 74.1841 228.543 73.0166ZM212.282 80.3551C212.282 79.2988 212.504 78.3398 212.949 77.478C213.394 76.6163 213.978 75.8797 214.7 75.2682C215.423 74.6566 216.229 74.198 217.119 73.8922C218.008 73.5864 218.898 73.4335 219.787 73.4335C221.566 73.4335 222.859 73.8922 223.665 74.8095C224.471 75.7268 224.874 76.7414 224.874 77.8533C224.874 79.0764 224.638 80.2717 224.165 81.4392C223.693 82.6066 223.067 83.7463 222.289 84.8582C222.956 84.9694 223.637 85.0528 224.332 85.1084C225.027 85.164 225.736 85.1918 226.459 85.1918V89.7783C225.069 89.7783 223.707 89.6671 222.372 89.4448C221.038 89.2224 219.787 88.861 218.62 88.3607C217.174 89.417 215.576 90.2509 213.825 90.8624C212.074 91.474 210.281 91.7797 208.446 91.7797C207.834 91.7797 207.459 91.5574 207.32 91.1126C207.181 90.6679 207.112 90.1397 207.112 89.5282C207.112 88.9166 207.181 88.3746 207.32 87.902C207.459 87.4295 207.834 87.1932 208.446 87.1932C210.614 87.1932 212.643 86.7206 214.534 85.7755C213.033 84.2745 212.282 82.4677 212.282 80.3551ZM215.868 79.7713C215.868 80.5496 216.076 81.2307 216.493 81.8144C216.91 82.3982 217.48 82.9124 218.203 83.3572C218.926 82.69 219.495 81.9951 219.912 81.2724C220.329 80.5496 220.538 79.8269 220.538 79.1042C220.538 78.0479 220.01 77.5197 218.953 77.5197C218.064 77.5197 217.327 77.7838 216.743 78.312C216.16 78.8401 215.868 79.3266 215.868 79.7713ZM208.446 91.7797C204.999 91.7797 202.581 90.6679 201.191 88.4441C199.968 90.5567 198.439 92.1828 196.604 93.3225C194.77 94.4622 192.88 95.032 190.934 95.032C190.322 95.032 189.947 94.8096 189.808 94.3649C189.669 93.9201 189.599 93.392 189.599 92.7804C189.599 92.1689 189.669 91.6269 189.808 91.1543C189.947 90.6817 190.322 90.4455 190.934 90.4455C192.824 90.4455 194.533 89.8061 196.062 88.5275C197.591 87.2488 198.578 85.4698 199.023 83.1904C199.189 82.4677 199.467 81.9395 199.857 81.6059C200.246 81.2724 200.677 81.1334 201.149 81.189C201.622 81.2446 202.053 81.4531 202.442 81.8144C202.831 82.1758 203.081 82.6622 203.192 83.2738C203.415 84.4413 203.971 85.3864 204.86 86.1091C205.75 86.8318 206.945 87.1932 208.446 87.1932V91.7797ZM183.595 88.6109C183.595 87.9993 183.651 87.4295 183.762 86.9013C183.873 86.3732 183.929 85.8867 183.929 85.442C183.929 84.608 183.401 84.1911 182.344 84.1911C180.565 84.1911 178.314 84.7748 175.59 85.9423C172.866 87.1098 169.599 88.4024 165.791 89.82C161.983 91.2377 157.647 92.5303 152.782 93.6978C147.917 94.8652 142.483 95.449 136.479 95.449C121.858 95.449 113.074 91.1126 110.127 82.4399C109.905 81.8283 109.974 81.3697 110.336 81.0639C110.697 80.7581 110.989 80.7442 111.211 81.0222C112.323 82.69 113.616 84.1077 115.089 85.2752C116.562 86.4427 118.299 87.4017 120.301 88.1522C122.302 88.9027 124.582 89.4587 127.139 89.82C129.696 90.1814 132.615 90.3621 135.895 90.3621C142.289 90.3621 147.89 89.7644 152.699 88.5692C157.508 87.3739 161.774 86.0535 165.499 84.608C169.224 83.1626 172.518 81.8422 175.381 80.6469C178.244 79.4517 180.927 78.854 183.428 78.854C185.93 78.854 187.181 79.8825 187.181 81.9395C187.181 82.9958 187.056 83.8158 186.806 84.3996C186.556 84.9833 186.431 85.6365 186.431 86.3593C186.431 87.5824 186.778 88.5692 187.473 89.3197C188.168 90.0702 189.322 90.4455 190.934 90.4455V95.032C188.599 95.032 186.792 94.49 185.513 93.4059C184.235 92.3218 183.595 90.7234 183.595 88.6109Z" fill="#050033"/>
<path d="M258.087 112.772C258.087 116.108 259.171 118.735 261.339 120.653C263.507 122.571 266.565 123.53 270.512 123.53C273.792 123.53 277.072 123.071 280.352 122.154C283.633 121.237 286.593 120.069 289.234 118.651C291.874 117.234 294.015 115.691 295.655 114.023C297.295 112.355 298.115 110.743 298.115 109.186C298.115 108.075 297.642 107.338 296.697 106.977C295.752 106.615 294.501 106.435 292.945 106.435C291.166 106.435 289.123 106.49 286.815 106.601C284.508 106.712 282.271 106.768 280.102 106.768C278.323 106.768 277.045 106.476 276.266 105.892C275.488 105.309 275.099 104.461 275.099 103.349C275.099 102.459 275.738 101.292 277.017 99.8465C278.296 98.4011 279.922 96.8444 281.895 95.1766C283.869 93.5088 286.037 91.8409 288.4 90.1731C290.763 88.5053 293.042 86.9903 295.238 85.6282C297.434 84.2662 299.408 83.1543 301.159 82.2926C302.91 81.4309 304.147 81 304.87 81C306.26 81 306.955 81.6115 306.955 82.8346C306.955 83.2794 306.774 83.8909 306.412 84.6692C306.051 85.4476 305.606 86.212 305.078 86.9625C304.55 87.713 304.008 88.3663 303.452 88.9222C302.896 89.4782 302.451 89.7561 302.118 89.7561C301.84 89.7561 301.673 89.6727 301.617 89.506C301.562 89.3392 301.52 89.1585 301.492 88.9639C301.465 88.7693 301.409 88.5887 301.326 88.4219C301.242 88.2551 301.061 88.1717 300.784 88.1717C300.116 88.1717 299.116 88.4914 297.781 89.1307C296.447 89.77 294.974 90.5762 293.362 91.5491C291.749 92.522 290.082 93.5922 288.358 94.7596C286.635 95.9271 285.078 97.039 283.688 98.0953C282.298 99.1516 281.159 100.111 280.269 100.972C279.38 101.834 278.935 102.404 278.935 102.682C278.935 102.96 279.185 103.113 279.685 103.141C280.186 103.168 280.908 103.182 281.854 103.182C283.633 103.182 285.439 103.127 287.274 103.015C289.109 102.904 291.11 102.849 293.278 102.849C295.947 102.849 297.976 103.349 299.366 104.35C300.756 105.35 301.451 106.907 301.451 109.02C301.451 111.466 300.561 113.856 298.782 116.191C297.003 118.526 294.64 120.611 291.694 122.446C288.747 124.28 285.398 125.767 281.645 126.907C277.892 128.047 274.015 128.617 270.012 128.617C264.23 128.617 259.949 127.157 257.17 124.239C254.39 121.32 253 117.442 253 112.605C253 110.271 253.5 107.769 254.501 105.1C255.502 102.432 256.892 99.7771 258.671 97.1363C260.45 94.4956 262.562 91.9382 265.008 89.4643C267.455 86.9903 270.123 84.7526 273.014 82.7512C274.515 81.6949 275.502 81.2363 275.974 81.3753C276.447 81.5143 276.211 82.0563 275.266 83.0014C272.152 86.0035 269.512 88.8249 267.343 91.4657C265.175 94.1064 263.396 96.636 262.006 99.0543C260.616 101.473 259.616 103.808 259.004 106.059C258.393 108.311 258.087 110.548 258.087 112.772Z" fill="#050033"/>
<path d="M403.505 97.937C403.295 97.937 402.993 97.8715 402.6 97.7404C402.207 97.6094 401.788 97.4783 401.342 97.3473C400.896 97.2162 400.451 97.0851 400.005 96.9541C399.56 96.823 399.179 96.7575 398.865 96.7575C398.393 96.7575 397.961 96.9672 397.567 97.3866C397.174 97.806 396.768 98.2778 396.349 98.8021C395.929 99.3263 395.457 99.7981 394.933 100.218C394.409 100.637 393.78 100.847 393.046 100.847C392.469 100.847 391.945 100.702 391.473 100.414C391.001 100.126 390.582 99.7719 390.215 99.3525C389.848 98.9331 389.559 98.5137 389.35 98.0943C389.14 97.6749 389.035 97.3341 389.035 97.072C389.035 96.7575 389.179 96.3512 389.468 95.8531C389.756 95.3551 390.189 95.1061 390.765 95.1061C390.975 95.1061 391.185 95.224 391.394 95.4599C391.604 95.6959 391.801 95.958 391.984 96.2463C392.168 96.5347 392.364 96.7968 392.574 97.0327C392.784 97.2686 393.02 97.3866 393.282 97.3866C393.649 97.3866 394.002 97.1638 394.343 96.7181C394.684 96.2725 395.051 95.8007 395.444 95.3027C395.837 94.8046 396.257 94.3328 396.702 93.8872C397.148 93.4416 397.633 93.2188 398.157 93.2188C398.786 93.2188 399.442 93.3629 400.123 93.6513C400.805 93.9396 401.434 94.3066 402.01 94.7522C402.587 95.1978 403.059 95.6696 403.426 96.1677C403.793 96.6657 403.976 97.0982 403.976 97.4652C403.976 97.7798 403.819 97.937 403.505 97.937Z" fill="#CD6C58"/>
<path d="M437.005 133.586C437.739 133.586 438.277 133.861 438.617 134.412C438.958 134.962 439.128 135.499 439.128 136.024C439.128 136.758 438.879 137.439 438.381 138.068C437.883 138.697 437.267 139.012 436.533 139.012C435.642 139.012 434.816 138.697 434.056 138.068C433.296 137.439 432.916 136.758 432.916 136.024C433.021 135.185 433.532 134.569 434.449 134.176C435.367 133.783 436.219 133.586 437.005 133.586Z" fill="#CD6C58"/>
<path d="M466.705 133.374C466.705 132.798 467.649 132.509 469.536 132.509C471.161 132.509 472.708 132.405 474.176 132.195C475.644 131.985 476.994 131.749 478.226 131.487C479.458 131.225 480.506 130.989 481.371 130.779C482.236 130.57 482.905 130.465 483.376 130.465C483.796 130.465 484.005 130.57 484.005 130.779C484.005 131.146 483.56 131.631 482.669 132.234C481.777 132.837 480.65 133.414 479.287 133.964C477.924 134.515 476.404 134.987 474.726 135.38C473.049 135.773 471.397 135.97 469.772 135.97C468.881 135.97 468.147 135.642 467.57 134.987C466.993 134.331 466.705 133.794 466.705 133.374Z" fill="#CD6C58"/>
<path d="M391.002 119.012C391.002 117.544 391.474 116.377 392.417 115.512C393.361 114.647 394.646 114.215 396.271 114.215C398.053 114.215 399.521 114.909 400.674 116.299C401.828 117.688 402.404 119.405 402.404 121.45C402.404 123.337 402.064 125.093 401.382 126.718C400.701 128.343 399.77 129.759 398.591 130.965C397.411 132.171 395.995 133.114 394.344 133.796C392.693 134.477 390.923 134.818 389.036 134.818C388.459 134.818 388.105 134.608 387.974 134.189C387.843 133.77 387.778 133.271 387.778 132.695C387.778 132.118 387.843 131.607 387.974 131.161C388.105 130.716 388.459 130.493 389.036 130.493C390.242 130.493 391.395 130.283 392.496 129.864C393.597 129.444 394.567 128.894 395.406 128.212C396.244 127.531 396.913 126.731 397.411 125.814C397.909 124.897 398.158 123.914 398.158 122.865C398.158 122.76 398.158 122.642 398.158 122.511C398.158 122.38 398.132 122.184 398.079 121.921C397.503 122.184 396.9 122.393 396.271 122.55C395.642 122.708 395.039 122.786 394.462 122.786C393.414 122.786 392.575 122.433 391.946 121.725C391.316 121.017 391.002 120.113 391.002 119.012ZM389.036 134.818C386.939 134.818 385.209 134.477 383.846 133.796C382.483 133.114 381.395 132.223 380.582 131.122C379.77 130.021 379.206 128.776 378.892 127.387C378.577 125.997 378.42 124.621 378.42 123.258C376.637 125.46 374.593 127.452 372.286 129.235C369.979 131.017 367.607 132.538 365.169 133.796C362.732 135.054 360.346 136.024 358.013 136.705C355.68 137.387 353.596 137.728 351.762 137.728C350.346 137.728 349.415 137.531 348.97 137.138C348.524 136.745 348.826 136.365 349.874 135.998C355.274 134.163 360.333 131.764 365.051 128.802C369.77 125.84 373.859 122.21 377.319 117.911C377.738 117.439 378.197 117.033 378.695 116.692C379.193 116.351 379.73 116.181 380.307 116.181C380.779 116.181 381.146 116.325 381.408 116.613C381.67 116.902 381.88 117.242 382.037 117.636C382.194 118.029 382.299 118.474 382.352 118.972C382.404 119.47 382.43 119.903 382.43 120.27C382.43 121.738 382.535 123.088 382.745 124.32C382.955 125.552 383.308 126.627 383.807 127.544C384.305 128.461 384.986 129.182 385.851 129.707C386.716 130.231 387.778 130.493 389.036 130.493V134.818Z" fill="#CD6C58"/>
<path d="M468.958 145.723C470.845 145.723 473.087 145.356 475.682 144.622C478.277 143.888 480.872 142.931 483.467 141.752C486.062 140.572 488.486 139.222 490.741 137.702C492.995 136.182 494.725 134.635 495.931 133.062C495.407 133.115 494.961 133.141 494.594 133.141C494.227 133.141 493.913 133.141 493.65 133.141C491.815 133.141 490.518 132.63 489.758 131.608C488.998 130.585 488.618 129.471 488.618 128.265C488.618 127.479 488.788 126.666 489.129 125.828C489.469 124.989 489.915 124.216 490.466 123.508C491.016 122.8 491.658 122.223 492.392 121.778C493.126 121.332 493.913 121.109 494.751 121.109C495.59 121.109 496.403 121.319 497.189 121.738C497.976 122.158 498.644 122.735 499.194 123.469C499.745 124.202 500.19 125.041 500.531 125.985C500.872 126.929 501.042 127.898 501.042 128.895C501.042 130.572 500.531 132.25 499.509 133.927C498.487 135.605 497.15 137.204 495.498 138.724C493.847 140.245 491.973 141.66 489.876 142.971C487.779 144.281 485.656 145.409 483.506 146.352C481.357 147.296 479.246 148.043 477.176 148.593C475.105 149.144 473.309 149.419 471.789 149.419C470.321 149.419 468.984 149.052 467.778 148.318C466.573 147.584 465.917 146.719 465.812 145.723C465.812 145.513 465.865 145.409 465.97 145.409C466.127 145.409 466.428 145.461 466.874 145.566C467.32 145.671 468.014 145.723 468.958 145.723ZM494.201 128.895C494.568 128.895 495 128.868 495.498 128.816C495.996 128.763 496.612 128.685 497.346 128.58C497.189 127.427 496.77 126.549 496.088 125.946C495.407 125.343 494.804 125.041 494.28 125.041C493.65 125.041 493.061 125.33 492.51 125.906C491.96 126.483 491.684 127.086 491.684 127.715C491.684 128.03 491.881 128.305 492.274 128.541C492.667 128.777 493.31 128.895 494.201 128.895Z" fill="#CD6C58"/>
<path d="M514.097 99.5625C514.517 99.5625 514.884 99.7067 515.198 99.995C515.513 100.283 515.762 100.794 515.945 101.528C516.129 102.262 516.26 103.258 516.338 104.517C516.417 105.775 516.456 107.4 516.456 109.392C516.456 112.957 516.338 116.09 516.102 118.79C515.867 121.489 515.473 123.901 514.923 126.024C514.372 128.147 513.638 130.074 512.721 131.804C511.804 133.534 510.637 135.212 509.222 136.837C508.488 137.728 507.636 138.593 506.666 139.432C505.696 140.271 504.739 141.044 503.796 141.752C502.852 142.46 501.974 143.023 501.161 143.443C500.349 143.862 499.706 144.072 499.235 144.072C498.92 144.072 498.763 143.967 498.763 143.757C498.815 143.338 499.47 142.564 500.729 141.437C501.987 140.31 503.56 138.646 505.447 136.444C506.862 134.819 507.99 133.233 508.828 131.686C509.667 130.14 510.323 128.383 510.794 126.417C511.266 124.451 511.568 122.105 511.699 119.379C511.83 116.653 511.869 113.298 511.817 109.314C511.764 107.269 511.777 105.618 511.856 104.359C511.935 103.101 512.066 102.118 512.249 101.41C512.433 100.703 512.682 100.218 512.996 99.9557C513.311 99.6936 513.678 99.5625 514.097 99.5625Z" fill="#CD6C58"/>
<path d="M379.835 96.4143C374.541 96.4143 370.163 96.8337 366.703 97.6725C363.243 98.5113 360.386 100.045 358.131 102.273C355.877 104.501 354.042 107.62 352.627 111.631C351.211 115.641 349.927 120.845 348.773 127.24C348.354 129.337 347.935 131.631 347.515 134.121C347.096 136.611 346.624 139.377 346.1 142.418C345.575 145.458 344.973 148.8 344.291 152.444C343.61 156.088 342.797 160.111 341.853 164.515C341.172 167.66 340.438 169.233 339.651 169.233C339.075 169.233 338.655 168.735 338.393 167.739C338.131 166.743 338 165.563 338 164.2C338 163.571 338.183 162.234 338.55 160.19C338.917 158.145 339.402 155.485 340.005 152.208C340.608 148.931 341.329 145.065 342.168 140.609C343.007 136.153 343.898 131.172 344.842 125.668C345.68 120.74 346.729 116.31 347.987 112.378C349.245 108.446 350.844 105.078 352.784 102.273C354.724 99.4681 357.057 97.24 359.783 95.5886C362.509 93.9372 365.812 92.9018 369.691 92.4824C369.953 91.1193 370.307 90.0315 370.753 89.2189C371.198 88.4063 371.945 88 372.994 88C373.99 88 375.039 88.1966 376.139 88.5898C377.24 88.983 378.263 89.4679 379.206 90.0446C380.15 90.6213 380.936 91.2242 381.566 91.8533C382.195 92.4824 382.509 93.0591 382.509 93.5833C382.509 94.5794 382.247 95.3002 381.723 95.7459C381.199 96.1915 380.569 96.4143 379.835 96.4143Z" fill="#CD6C58"/>
<path d="M482.616 116.286C484.136 116.286 485.302 115.722 486.115 114.595C486.927 113.468 487.386 111.594 487.491 108.972C487.596 106.613 487.661 104.175 487.688 101.659C487.714 99.1425 487.779 96.7047 487.884 94.3456C487.989 92.5631 488.697 91.6719 490.007 91.6719C490.794 91.6719 491.331 92.0126 491.62 92.6942C491.908 93.3757 492.026 94.1621 491.973 95.0533C491.869 97.4125 491.803 99.8502 491.777 102.367C491.751 104.883 491.685 107.321 491.58 109.68C491.423 113.193 490.558 115.892 488.985 117.78C487.412 119.667 485.289 120.611 482.616 120.611C482.039 120.611 481.685 120.401 481.554 119.982C481.423 119.562 481.357 119.064 481.357 118.487C481.357 117.911 481.423 117.4 481.554 116.954C481.685 116.508 482.039 116.286 482.616 116.286ZM482.616 120.611C479.365 120.611 477.085 119.562 475.774 117.465C474.621 119.457 473.179 120.991 471.449 122.066C469.719 123.14 467.936 123.678 466.102 123.678C465.525 123.678 465.171 123.468 465.04 123.048C464.909 122.629 464.843 122.131 464.843 121.554C464.843 120.978 464.909 120.467 465.04 120.021C465.171 119.575 465.525 119.353 466.102 119.353C467.884 119.353 469.496 118.75 470.938 117.544C472.379 116.338 473.31 114.66 473.729 112.511C473.887 111.829 474.149 111.331 474.516 111.017C474.883 110.702 475.289 110.571 475.735 110.624C476.18 110.676 476.587 110.873 476.954 111.213C477.321 111.554 477.556 112.013 477.661 112.59C477.871 113.691 478.395 114.582 479.234 115.263C480.073 115.945 481.2 116.286 482.616 116.286V120.611ZM433.624 159.222C431.003 159.222 428.25 158.75 425.367 157.807C422.484 156.863 419.836 155.474 417.424 153.639C415.013 151.804 413.021 149.536 411.448 146.837C409.875 144.137 409.089 141.004 409.089 137.439C409.089 134.923 409.652 132.485 410.78 130.126C411.907 127.767 413.414 125.578 415.301 123.56C417.189 121.541 419.377 119.693 421.868 118.016C424.358 116.338 426.966 114.896 429.692 113.691C432.418 112.485 435.184 111.554 437.988 110.899C440.793 110.244 443.454 109.916 445.97 109.916C446.599 109.916 447.071 110.099 447.386 110.466C447.7 110.833 447.569 111.069 446.992 111.174C442.903 112.065 438.893 113.415 434.961 115.224C431.029 117.033 427.516 119.117 424.423 121.476C421.33 123.835 418.84 126.391 416.953 129.143C415.065 131.895 414.122 134.635 414.122 137.361C414.122 139.563 414.672 141.686 415.773 143.73C416.874 145.775 418.355 147.57 420.216 149.117C422.077 150.664 424.201 151.909 426.586 152.852C428.971 153.796 431.422 154.268 433.939 154.268C437.294 154.268 440.518 153.613 443.611 152.302C446.704 150.991 449.43 149.065 451.789 146.522C454.149 143.979 456.036 140.834 457.451 137.085C458.867 133.337 459.575 129.025 459.575 124.149C459.575 123.415 459.548 122.642 459.496 121.83C459.443 121.017 459.417 120.218 459.417 119.431C459.417 118.33 459.627 117.505 460.046 116.954C460.466 116.404 461.016 116.128 461.698 116.128C462.327 116.128 462.759 116.299 462.995 116.639C463.231 116.98 463.441 117.347 463.624 117.74C463.808 118.134 464.057 118.501 464.371 118.841C464.686 119.182 465.263 119.353 466.102 119.353V123.678C465.105 123.678 464.371 123.573 463.9 123.363C463.9 128.868 463.1 133.835 461.501 138.265C459.902 142.695 457.727 146.47 454.974 149.589C452.222 152.708 449.011 155.094 445.341 156.745C441.671 158.396 437.766 159.222 433.624 159.222Z" fill="#CD6C58"/>
</svg>
